<?xml version="1.0" encoding="UTF-8"?>
<svg xmlns="http://www.w3.org/2000/svg" width="32" height="32" viewBox="0 0 32 32">
  <g fill="#FFCC00">
    <!-- CABEZA CON OREJAS -->
    <path d="M16 2 
             L24 6 L28 14 
             Q28 22 16 30 
             Q4 22 4 14 
             L8 6 Z"/>

    <!-- OJOS (CORTES) -->
    <path d="M10 14 Q12 12 14 14 Q12 16 10 14 Z" fill="black" stroke="#000" stroke-width="0"/>
    <path d="M18 14 Q20 12 22 14 Q20 16 18 14 Z" fill="black" stroke="#000" stroke-width="0"/>

    <!-- NARIZ (CORTES) -->
    <path d="M15 18 L17 18 L16 19 Z" fill="black" stroke="#000" stroke-width="0"/>

    <!-- BIGOTES (LADO IZQUIERDO) -->
    <path d="M8 18 L2 16 M8 19 L2 19 M8 20 L2 22" fill="black" stroke="#000" stroke-width="0"/>

    <!-- BIGOTES (LADO DERECHO) -->
    <path d="M24 18 L30 16 M24 19 L30 19 M24 20 L30 22" fill="black" stroke="#000" stroke-width="0"/>
  </g>
</svg>
