<?xml version="1.0" encoding="UTF-8"?>
<svg xmlns="http://www.w3.org/2000/svg"
    xmlns:xlink="http://www.w3.org/1999/xlink"
    style="display: none;">

    <!-- CATALONIA ROUND FLAG -->
    <symbol id="ca-ES" aria-hidden="true" viewBox="0 0 40 40">
        <defs>
            <clipPath id="clip-catalonia">
                <circle cx="20" cy="20" r="20"/>
            </clipPath>
        </defs>
        <g clip-path="url(#clip-catalonia)" shape-rendering="crispEdges">
            <rect width="40" height="40" fill="#ffda44"/>
            <g fill="#d80027">
                <rect y="4.44" width="40" height="4.44"/>
                <rect y="13.32" width="40" height="4.44"/>
                <rect y="22.2" width="40" height="4.44"/>
                <rect y="30.88" width="40" height="4.44"/>
            </g>
        </g>
    </symbol>    

    <!-- SPAIN ROUND FLAG -->
    <symbol id="es-ES" aria-hidden="true" viewBox="0 0 40 40">
        <defs>
            <clipPath id="clip-spain">
                <circle cx="20" cy="20" r="20" />
            </clipPath>
        </defs>
        <g clip-path="url(#clip-spain)" shape-rendering="crispEdges">
            <rect width="40" height="40" fill="#ffda44"/>
            <rect y="0" width="40" height="10" fill="#d80027"/>
            <rect y="30" width="40" height="10" fill="#d80027"/>
        </g>
    </symbol>

    <!-- UNITED KINGDOM ROUND FLAG -->
    <symbol id="en-GB" aria-hidden="true" viewBox="0 0 40 40">
        <defs>
            <clipPath id="clip-uk">
                <circle cx="20" cy="20" r="20"/>
            </clipPath>
        </defs>
        <g clip-path="url(#clip-uk)" shape-rendering="crispEdges">
            <rect width="40" height="40" fill="#012169"/>
            <polygon points="0,0 8,0 40,32 40,40 32,40 0,8" fill="#fff"/>
            <polygon points="40,0 32,0 0,32 0,40 8,40 40,8" fill="#fff"/>
            <polygon points="0,0 4,0 40,36 40,40 36,40 0,4" fill="#c8102e"/>
            <polygon points="40,0 36,0 0,36 0,40 4,40 40,4" fill="#c8102e"/>
            <rect x="16" width="8" height="40" fill="#fff"/>
            <rect y="16" width="40" height="8" fill="#fff"/>
            <rect x="18" width="4" height="40" fill="#c8102e"/>
            <rect y="18" width="40" height="4" fill="#c8102e"/>
        </g>
    </symbol>

    <!-- RUSSIA ROUND FLAG -->
    <symbol id="ru-RU" aria-hidden="true" viewBox="0 0 40 40">
        <defs>
            <clipPath id="clip-ru">
                <circle cx="20" cy="20" r="20"/>
            </clipPath>
        </defs>
        <g clip-path="url(#clip-ru)" shape-rendering="crispEdges">
            <rect width="40" height="13.33" y="0" fill="#fff"/>
            <rect width="40" height="13.33" y="13.33" fill="#0052b4"/>
            <rect width="40" height="13.33" y="26.66" fill="#d80027"/>
        </g>
    </symbol>

    <!-- SAUDI ARABIA ROUND FLAG -->
    <symbol id="ar-SA" aria-hidden="true" viewBox="0 0 40 40">
        <defs>
            <clipPath id="clip-ar">
                <circle cx="20" cy="20" r="20"/>
            </clipPath>
        </defs>
        <g clip-path="url(#clip-ar)" shape-rendering="crispEdges">
            <rect width="40" height="40" fill="#496e2d"/>
            <g transform="scale(0.078125)">
                <path fill="#eee" d="M336 356v16H128l24 24h184v16h16v-16h32v-24h-32v-16zM131.4 174v41.4h-15.8v-26.7H97.8q-6.3 0-10.8 2.3a15 15 0 0 0-6.7 6.4 22 22 0 0 0-2.3 10.5q0 6 2.3 10.3 2.3 4 6.7 6 4.5 2.1 10.8 2.1H173V174h-13v41.4h-15.8V174zm52.9 0v52.3h12.8V174zm55.3 0v41.4h-11v-31h-12.8v31h-9.3v10.9h45.9V174zm24.3 0v52.3h12.8V174zm77.8 0v41.4H326v-26.7h-17.8q-6.3 0-10.8 2.3a15 15 0 0 0-6.7 6.4 22 22 0 0 0-2.3 10.5q0 6 2.3 10.3 2.3 4 6.7 6 4.5 2.1 10.8 2.1h46.5V174zm24.2 0v52.3h12.8V174zm55.3 0v41.4h-11v-31h-12.8v31h-9.3v10.9h46V174ZM97.8 199.6h5v15.8h-5q-2.4 0-4-.4-1.5-.5-2.2-2a13 13 0 0 1-.8-5.1q0-3.7.8-5.4 1-1.8 2.5-2.3 1.5-.6 3.7-.6m210.3 0h5v15.8h-5q-2.4 0-4-.4-1.5-.5-2.2-2a13 13 0 0 1-.8-5.1q0-3.7.8-5.4 1-1.8 2.5-2.3 1.6-.6 3.7-.6M114.8 247v28.5h-10.9V257H91.6q-4.4 0-7.4 1.6-3 1.4-4.6 4.4t-1.6 7.2q0 4.3 1.6 7 1.5 2.9 4.6 4.3t7.4 1.4h51.7v-36h-8.8v28.5h-10.9V247Zm36.3 0v36h8.8v-36Zm39.7 0v35.8q0 1.5-.6 2.7t-2 2q-1.5.6-4 .7t-4.2-.7-2.4-2q-.9-1.3-.9-3.1l.2-2.8 1.5-10.8-8.7-1.1-1.2 8.4-.6 6.4q0 3.7 2 6.7a14 14 0 0 0 5.9 4.8q3.6 1.7 8.3 1.7 4.5 0 8-1.6 3.6-1.6 5.5-4.6 2-2.8 2-6.7V247Zm159.5 10a36 36 0 0 0-10 1.4 40 40 0 0 0-1.3 7.4 57 57 0 0 0 0 9.6h-11v-2a20 20 0 0 0-1.9-9.2q-1.8-3.6-5.4-5.3a20 20 0 0 0-8.7-1.8h-4.2v7.5h4.2q2.7 0 4.3.8 1.5.7 2.2 2.6.6 1.8.7 5.4v2h-12.7v7.6H434v-12.8q0-5-1.6-7.8-1.5-3-4.7-4.1-3.2-1.4-8-1.3a36 36 0 0 0-10 1.4 40 40 0 0 0-1.4 7.4 57 57 0 0 0 0 9.6h-10.9v-4.8q0-4.2-2-7.2t-5.5-4.6a18 18 0 0 0-7.9-1.7q-2.1 0-4.2.4l-4.3.8.7 7a48 48 0 0 1 6.7-.6q4 0 6 1.5 1.7 1.5 1.7 4.4v4.9h-23.9v-5.3q0-5-1.6-7.8-1.6-3-4.8-4.1-3-1.4-8-1.3m-131.7.1q-4.3 0-7.4 1.6-3 1.4-4.6 4.4t-1.6 7.2q0 4.3 1.6 7 1.6 2.9 4.6 4.3t7.4 1.4h3.5v1.6q0 2.3-1.5 3.4-1.4 1.2-4.7 1.2l-3-.2q-1.8 0-4.3-.4l-1.2 7a59 59 0 0 0 8.5 1q4.5 0 7.8-1.4 3.4-1.5 5.3-4.2a11 11 0 0 0 1.9-6.4V283h22.9a15 15 0 0 0 7.9-2q1 .6 2.2 1 2.3 1 4.7 1h13.9v-14l-.3-3.3-1.3-8.6-8.7 1.3a118 118 0 0 1 1.4 10.5v6.6h-5l-1.9-.4-.9-.5q.7-2.7.7-6.2v-8.6h-8.8v8.6q0 3-.4 4.6-.3 1.5-1 2a5 5 0 0 1-2.5.5h-3v-13h-9v13H231V257zm73.8 0v26.6q0 2.7-1 4-1 1.5-2.8 1.5h-2.8l-.2 7.3 3.1.2q3.8 0 6.6-1.7t4.3-4.6 1.6-6.7V257zm58 7.4q2.1 0 3.3.5t1.7 1.7q.4 1.3.4 3.4v5.4h-8a71 71 0 0 1 0-8.6l.2-2.3zm69.3 0q2.2 0 3.4.5t1.6 1.7q.5 1.3.5 3.4v5.4h-8a71 71 0 0 1-.1-8.6l.2-2.3zm-328.1.1H95v10.9h-3.4q-1.7 0-2.7-.3-1-.4-1.6-1.4a9 9 0 0 1-.5-3.5q0-2.6.6-3.7A3 3 0 0 1 89 265a8 8 0 0 1 2.5-.4m127 0h3.5v10.9h-3.5q-1.6 0-2.7-.3-1-.4-1.6-1.4a9 9 0 0 1-.5-3.5q0-2.6.6-3.7a3 3 0 0 1 1.7-1.6 8 8 0 0 1 2.5-.4"/>
            </g>
        </g>
    </symbol>

    <!-- CHINA ROUND FLAG -->
    <symbol id="zh-CN" viewBox="0 0 40 40" aria-hidden="true">
        <defs>
            <clipPath id="clip-cn">
                <circle cx="20" cy="20" r="20"/>
            </clipPath>
        </defs>
        <g clip-path="url(#clip-cn)" shape-rendering="crispEdges">
            <rect width="40" height="40" fill="#d80027"/>
            <g transform="scale(0.078125)">
                <path fill="#ffda44" d="m140.1 155.8 22.1 68h71.5l-57.8 42.1 22.1 68-57.9-42-57.9 42 22.2-68-57.9-42.1H118zm163.4 240.7-16.9-20.8-25 9.7 14.5-22.5-16.9-20.9 25.9 6.9 14.6-22.5 1.4 26.8 26 6.9-25.1 9.6zm33.6-61 8-25.6-21.9-15.5 26.8-.4 7.9-25.6 8.7 25.4 26.8-.3-21.5 16 8.6 25.4-21.9-15.5zm45.3-147.6L370.6 212l19.2 18.7-26.5-3.8-11.8 24-4.6-26.4-26.6-3.8 23.8-12.5-4.6-26.5 19.2 18.7zm-78.2-73-2 26.7 24.9 10.1-26.1 6.4-1.9 26.8-14.1-22.8-26.1 6.4 17.3-20.5-14.2-22.7 24.9 10.1z"/>
            </g>
        </g>
    </symbol>

    <!-- NATIVE LANGUAGE ICON -->
    <symbol id="native-lang" role="img" aria-hidden="true" viewBox="0 0 124 16">
        <circle cx="8" cy="8" r="8" fill="currentColor" />
        <circle cx="35" cy="8" r="8" fill="currentColor" />
        <circle cx="62" cy="8" r="8" fill="currentColor" />
        <circle cx="89" cy="8" r="8" fill="currentColor" />
        <circle cx="116" cy="8" r="8" fill="currentColor" />
    </symbol>

    <!-- MEDIUM LANGUAGE ICON -->
    <symbol id="medium-lang" role="img" aria-hidden="true" viewBox="0 0 124 16">
        <circle cx="8" cy="8" r="8" fill="currentColor" />
        <circle cx="35" cy="8" r="8" fill="currentColor" />
        <circle aria-hidden="true" cx="62" cy="8" r="8" fill="var(--body-txt)" />
        <circle aria-hidden="true" cx="89" cy="8" r="8" fill="var(--body-txt)" />
        <circle aria-hidden="true" cx="116" cy="8" r="8" fill="var(--body-txt)" />
    </symbol>

    <!-- EMAIL ICON -->
    <symbol id="email" aria-hidden="true" viewBox="0 0 24 24">
        <path d="M1 7l11 6 11-6" stroke-width="1.5" stroke-linecap="round" stroke="currentColor" />
        <rect x="1" y="5" width="22" height="14" rx="2" stroke-width="1.5" stroke="currentColor" fill="none" />
    </symbol>

    <!-- WHATSAPP ICON -->
    <symbol id="whatsapp" aria-hidden="true" viewBox="0 0 39 39">
        <path d="M32.4 6.4C29 2.9 24.3 1 19.5 1 9.3 1 1.1 9.3 1.2 19.4c0 3.2.9 6.3 2.4 9.1L1 38l9.7-2.5c2.7 1.5 5.7 2.2 8.7 2.2 10.1 0 18.3-8.3 18.3-18.4 0-4.9-1.9-9.5-5.3-12.9zM19.5 34.6c-2.7 0-5.4-.7-7.7-2.1l-.6-.3-5.8 1.5L6.9 28l-.4-.6c-4.4-7.1-2.3-16.5 4.9-20.9s16.5-2.3 20.9 4.9 2.3 16.5-4.9 20.9c-2.3 1.5-5.1 2.3-7.9 2.3zm8.8-11.1l-1.1-.5s-1.6-.7-2.6-1.2c-.1 0-.2-.1-.3-.1-.3 0-.5.1-.7.2 0 0-.1.1-1.5 1.7-.1.2-.3.3-.5.3h-.1c-.1 0-.3-.1-.4-.2l-.5-.2c-1.1-.5-2.1-1.1-2.9-1.9-.2-.2-.5-.4-.7-.6-.7-.7-1.4-1.5-1.9-2.4l-.1-.2c-.1-.1-.1-.2-.2-.4 0-.2 0-.4.1-.5 0 0 .4-.5.7-.8.2-.2.3-.5.5-.7.2-.3.3-.7.2-1-.1-.5-1.3-3.2-1.6-3.8-.2-.3-.4-.4-.7-.5h-1.1c-.2 0-.4.1-.6.1l-.1.1c-.2.1-.4.3-.6.4-.2.2-.3.4-.5.6-.7.9-1.1 2-1.1 3.1 0 .8.2 1.6.5 2.3l.1.3c.9 1.9 2.1 3.6 3.7 5.1l.4.4c.3.3.6.5.8.8 2.1 1.8 4.5 3.1 7.2 3.8.3.1.7.1 1 .2h1c.5 0 1.1-.2 1.5-.4.3-.2.5-.2.7-.4l.2-.2c.2-.2.4-.3.6-.5s.4-.4.5-.6c.2-.4.3-.9.4-1.4v-.7s-.1-.1-.3-.2z" fill="currentColor" />
    </symbol>

    <!-- LINKEDIN ICON -->
    <symbol id="linkedin" aria-hidden="true" viewBox="0 0 24 24">
        <path d="M4.98 3.5c0 1.381-1.11 2.5-2.48 2.5s-2.48-1.119-2.48-2.5c0-1.38 1.11-2.5 2.48-2.5s2.48 1.12 2.48 2.5zm.02 4.5h-5v16h5v-16zm7.982 0h-4.968v16h4.969v-8.399c0-4.67 6.029-5.052 6.029 0v8.399h4.988v-10.131c0-7.88-8.922-7.593-11.018-3.714v-2.155z" fill="currentColor" />
    </symbol>

    <!-- DISCORD ICON -->
    <symbol id="discord" aria-hidden="true" viewBox="0 0 100 100">
        <path class="st89" d="M85.22,24.958c-11.459-8.575-22.438-8.334-22.438-8.334l-1.122,1.282
            c13.623,4.087,19.954,10.097,19.954,10.097c-19.491-10.731-44.317-10.654-64.59,0c0,0,6.571-6.331,20.996-10.418l-0.801-0.962
            c0,0-10.899-0.24-22.438,8.334c0,0-11.54,20.755-11.54,46.319c0,0,6.732,11.54,24.442,12.101c0,0,2.965-3.526,5.369-6.571
            c-10.177-3.045-14.024-9.376-14.024-9.376c6.394,4.001,12.859,6.505,20.916,8.094c13.108,2.698,29.413-0.076,41.591-8.094
            c0,0-4.007,6.491-14.505,9.456c2.404,2.965,5.289,6.411,5.289,6.411c17.71-0.561,24.441-12.101,24.441-12.02
            C96.759,45.713,85.22,24.958,85.22,24.958z M35.055,63.824c-4.488,0-8.174-3.927-8.174-8.815
            c0.328-11.707,16.102-11.671,16.348,0C43.229,59.897,39.622,63.824,35.055,63.824z M64.304,63.824
            c-4.488,0-8.174-3.927-8.174-8.815c0.36-11.684,15.937-11.689,16.348,0C72.478,59.897,68.872,63.824,64.304,63.824z" fill="currentColor" />
    </symbol>

    <!-- ADDRESS ICON -->
    <symbol id="address" aria-hidden="true" viewBox="0 0 495.398 495.398">
        <path d="M487.083,225.514l-75.08-75.08V63.704c0-15.682-12.708-28.391-28.413-28.391c-15.669,0-28.377,12.709-28.377,28.391 v29.941L299.31,37.74c-27.639-27.624-75.694-27.575-103.27,0.05L8.312,225.514c-11.082,11.104-11.082,29.071,0,40.158 c11.087,11.101,29.089,11.101,40.172,0l187.71-187.729c6.115-6.083,16.893-6.083,22.976-0.018l187.742,187.747 c5.567,5.551,12.825,8.312,20.081,8.312c7.271,0,14.541-2.764,20.091-8.312C498.17,254.586,498.17,236.619,487.083,225.514z" fill="currentColor" />
        <path d="M257.561,131.836c-5.454-5.451-14.285-5.451-19.723,0L72.712,296.913c-2.607,2.606-4.085,6.164-4.085,9.877v120.401 c0,28.253,22.908,51.16,51.16,51.16h81.754v-126.61h92.299v126.61h81.755c28.251,0,51.159-22.907,51.159-51.159V306.79 c0-3.713-1.465-7.271-4.085-9.877L257.561,131.836z" fill="currentColor" />
    </symbol>

    <!-- ARROW TO RIGHT ICON -->
    <symbol id="arrow-right" aria-hidden="true" viewBox="0 0 64 74">
        <path d="M63.75,37 L0.75,0.05 L0.75,74Z" fill="currentColor" />
    </symbol>

    <!-- ARROW TO LEFT ICON -->
    <symbol id="arrow-left" aria-hidden="true" viewBox="0 0 64 74">
        <path d="M0.25,37 L64.25,0.05 L64.25,74Z" fill="currentColor" />
    </symbol>

    <!-- PDF ICON -->
    <symbol id="pdf" aria-hidden="true" viewBox="0 0 318.188 318.188">
        <path d="M283.149,52.722L232.625,2.197C231.218,0.79,229.311,0,227.321,0H40.342c-4.142,0-7.5,3.358-7.5,7.5v303.188
            c0,4.142,3.358,7.5,7.5,7.5h237.504c4.143,0,7.5-3.358,7.5-7.5V58.025C285.346,56.036,284.556,54.129,283.149,52.722z
            M234.821,25.607l24.918,24.919h-24.918V25.607z M47.842,15h171.98v10.263H47.842V15z M270.346,303.188H47.842V40.263h171.98
            v17.763c0,4.142,3.357,7.5,7.5,7.5h43.024V303.188z" fill="currentColor" />
        <path d="M201.704,147.048c-3.615-0.024-7.177,0.154-10.693,0.354c-1.296,0.087-2.579,0.199-3.861,0.31
            c-1.314-1.36-2.584-2.765-3.813-4.202c-7.82-9.257-14.134-19.755-19.279-30.664c1.366-5.271,2.459-10.772,3.119-16.485
            c1.205-10.427,1.619-22.31-2.288-32.251c-1.349-3.431-4.946-7.608-9.096-5.528c-4.771,2.392-6.113,9.169-6.502,13.973
            c-0.313,3.883-0.094,7.776,0.558,11.594c0.664,3.844,1.733,7.494,2.897,11.139c1.086,3.342,2.283,6.658,3.588,9.943
            c-0.828,2.586-1.707,5.127-2.63,7.603c-2.152,5.643-4.479,11.004-6.717,16.161c-1.18,2.557-2.335,5.06-3.465,7.507
            c-3.576,7.855-7.458,15.566-11.814,23.02c-10.163,3.585-19.283,7.741-26.857,12.625c-4.063,2.625-7.652,5.476-10.641,8.603
            c-2.822,2.952-5.69,6.783-5.941,11.024c-0.141,2.394,0.807,4.717,2.768,6.137c2.697,2.015,6.271,1.881,9.4,1.225
            c10.25-2.15,18.121-10.961,24.824-18.387c4.617-5.115,9.872-11.61,15.369-19.465c0.012-0.018,0.024-0.036,0.037-0.054
            c9.428-2.923,19.689-5.391,30.579-7.205c4.975-0.825,10.082-1.5,15.291-1.974c3.663,3.431,7.621,6.555,11.939,9.164
            c3.363,2.069,6.94,3.816,10.684,5.119c3.786,1.237,7.595,2.247,11.528,2.886c1.986,0.284,4.017,0.413,6.092,0.335
            c4.631-0.175,11.278-1.951,11.714-7.57c0.134-1.721-0.237-3.229-0.98-4.551c-3.643-6.493-16.231-8.533-22.006-9.451
            C210.955,147.26,206.308,147.044,201.704,147.048z M126.644,167.745c-2.169,3.36-4.261,6.382-6.232,9.041
            c-4.827,6.568-10.34,14.369-18.322,17.286c-1.516,0.554-3.512,1.126-5.616,1.002c-1.874-0.11-3.722-0.936-3.637-3.065
            c0.042-1.114,0.587-2.535,1.423-3.931c0.915-1.531,2.048-2.935,3.275-4.226c2.629-2.762,5.953-5.439,9.777-7.918
            c5.865-3.805,12.867-7.23,20.672-10.286C127.535,166.358,127.087,167.064,126.644,167.745z M153.866,83.485
            c-0.602-3.514-0.693-7.077-0.323-10.503c0.184-1.713,0.533-3.385,1.038-4.952c0.428-1.33,1.352-4.576,2.826-4.993
            c2.43-0.688,3.177,4.529,3.452,6.005c1.566,8.396,0.186,17.733-1.693,25.969c-0.299,1.31-0.632,2.599-0.973,3.883
            c-0.582-1.601-1.137-3.207-1.648-4.821C155.445,90.548,154.439,86.982,153.866,83.485z M170.549,149.765
            c-9.13,1.48-17.815,3.419-25.979,5.708c0.983-0.275,5.475-8.788,6.477-10.555c4.721-8.315,8.583-17.042,11.358-26.197
            c4.9,9.691,10.847,18.962,18.153,27.214c0.673,0.749,1.357,1.489,2.053,2.22C178.517,148.596,174.488,149.133,170.549,149.765z
            M232.293,161.459c-0.334,1.805-4.189,2.837-5.988,3.121c-5.316,0.836-10.94,0.167-16.028-1.542
            c-3.491-1.172-6.858-2.768-10.057-4.688c-3.18-1.921-6.155-4.181-8.936-6.673c3.429-0.206,6.9-0.341,10.388-0.275
            c3.488,0.035,7.003,0.211,10.475,0.664c6.511,0.726,13.807,2.961,18.932,7.186C232.088,160.085,232.41,160.821,232.293,161.459z" fill="currentColor" />
        <path d="M158.594,233.392h-16.606v47.979h15.523c7.985,0,14.183-2.166,18.591-6.498c4.408-4.332,6.613-10.501,6.613-18.509
            c0-7.438-2.096-13.127-6.285-17.065C172.24,235.361,166.295,233.392,158.594,233.392z M166.503,267.309
            c-1.838,2.287-4.726,3.43-8.664,3.43h-2.888v-26.877h3.773c3.545,0,6.187,1.061,7.926,3.183c1.739,2.123,2.609,5.382,2.609,9.78
            C169.26,261.528,168.341,265.023,166.503,267.309z" fill="currentColor" />
        <path d="M129.78,237.363c-3.041-2.647-7.592-3.971-13.652-3.971H99.522v47.979h12.963v-15.917h3.643
            c5.819,0,10.309-1.46,13.472-4.381c3.161-2.92,4.742-7.061,4.742-12.421C134.341,243.773,132.821,240.01,129.78,237.363z
            M119.492,253.247c-1.149,1.094-2.697,1.641-4.644,1.641h-2.363v-11.026h3.348c3.588,0,5.382,1.619,5.382,4.857
            C121.214,250.643,120.64,252.153,119.492,253.247z" fill="currentColor" />
        <polygon points="191.314,281.371 204.08,281.371 204.08,263.354 218.454,263.354 218.454,252.951 204.08,252.951 204.08,243.795
            219.669,243.795 219.669,233.392 191.314,233.392" fill="currentColor" />
    </symbol>

    <!-- GITHUB ICON -->
    <symbol id="github" aria-hidden="true" viewBox="0 0 20 20">
        <g stroke="none" stroke-width="1">
            <g transform="translate(-140.000000, -7559.000000)">
                <g transform="translate(56.000000, 160.000000)">
                    <path d="M94,7399 C99.523,7399 104,7403.59 104,7409.253 C104,7413.782 101.138,7417.624 97.167,7418.981 C96.66,7419.082 96.48,7418.762 96.48,7418.489 C96.48,7418.151 96.492,7417.047 96.492,7415.675 C96.492,7414.719 96.172,7414.095 95.813,7413.777 C98.04,7413.523 100.38,7412.656 100.38,7408.718 C100.38,7407.598 99.992,7406.684 99.35,7405.966 C99.454,7405.707 99.797,7404.664 99.252,7403.252 C99.252,7403.252 98.414,7402.977 96.505,7404.303 C95.706,7404.076 94.85,7403.962 94,7403.958 C93.15,7403.962 92.295,7404.076 91.497,7404.303 C89.586,7402.977 88.746,7403.252 88.746,7403.252 C88.203,7404.664 88.546,7405.707 88.649,7405.966 C88.01,7406.684 87.619,7407.598 87.619,7408.718 C87.619,7412.646 89.954,7413.526 92.175,7413.785 C91.889,7414.041 91.63,7414.493 91.54,7415.156 C90.97,7415.418 89.522,7415.871 88.63,7414.304 C88.63,7414.304 88.101,7413.319 87.097,7413.247 C87.097,7413.247 86.122,7413.234 87.029,7413.87 C87.029,7413.87 87.684,7414.185 88.139,7415.37 C88.139,7415.37 88.726,7417.2 91.508,7416.58 C91.513,7417.437 91.522,7418.245 91.522,7418.489 C91.522,7418.76 91.338,7419.077 90.839,7418.982 C86.865,7417.627 84,7413.783 84,7409.253 C84,7403.59 88.478,7399 94,7399" fill="currentColor" />
                </g>
            </g>
        </g>
    </symbol>

    <!-- VERCEL ICON -->
    <symbol id="vercel" aria-hidden="true" viewBox="0 0 74 64">
        <path d="M37.5896 0.25L74.5396 64.25H0.639648L37.5896 0.25Z" fill="currentColor" />
    </symbol>

    <!-- CLOSE ICON -->
    <symbol id="close" aria-hidden="true" viewBox="0 0 12 12">
        <circle cx="6" cy="6" r="6" fill="var(--accent-1)" />
        <line x1="3" y1="3" x2="9" y2="9" stroke-width="2" stroke="var(--accent-2)" />
        <line x1="9" y1="3" x2="3" y2="9" stroke-width="2" stroke="var(--accent-2)" />
    </symbol>

</svg>